<svg viewBox="0 0 1024 1024" xmlns="http://www.w3.org/2000/svg">

    <!-- Teal background -->
    <rect width="1024" height="1024" fill="#2C7A7B" rx="226.5"/>

    <!-- Foreground scaled to adaptive safe zone -->
    <g transform="translate(512,512) scale(1.25)">

        <!-- Chat bubble -->
        <g transform="translate(0,-22)">
            <rect x="-220" y="-220" width="440" height="440" rx="80" fill="white"/>
            <path d="M -80 220 L -120 300 L -20 220 Z" fill="white"/>
        </g>

        <!-- Wand + sparkle -->
        <g transform="translate(18,0) scale(1.65)">

            <g transform="translate(-75,-75)">
                <path
                  d="M 0,-28 Q 5,-12 8,-8 Q 12,-5 28,0 Q 12,5 8,8 Q 5,12 0,28 Q -5,12 -8,8 Q -12,5 -28,0 Q -12,-5 -8,-8 Q -5,-12 0,-28 Z"
                  fill="#2C7A7B"
        />
            </g>

            <line
              x1="-40"
              y1="-40"
              x2="65"
              y2="65"
              stroke="#2C7A7B"
              stroke-width="28"
              stroke-linecap="round"
      />

        </g>

    </g>

</svg>